<svg xmlns="http://www.w3.org/2000/svg" width="820" height="220" viewBox="0 0 820 220" role="img" aria-label="sgiath">
  <desc>Generated by StaticSite.Orbits — inner solar system + main belt, true scale, JD 2461268.0 TCB build epoch (et = 840069492.898 s TDB, 'now' at generation time). Do not edit by hand.</desc>
  <defs>
    <clipPath id="card"><rect x="1" y="1" width="818" height="218" rx="11"/></clipPath>
  </defs>
  <rect x="0.5" y="0.5" width="819" height="219" rx="12" fill="#050505" stroke="#1c1c1f"/>
  <g clip-path="url(#card)">
  <g transform="translate(585 110)" fill="none" stroke="#e6e6e9" stroke-width="1">
  <!-- mercury -->
  <g transform="matrix(-0.96 -8.37 -23.15 2.71 0.2 1.72)">
    <circle r="1" stroke-opacity="0.5" vector-effect="non-scaling-stroke"/>
    <g>
      <animateTransform attributeName="transform" type="rotate" from="0" to="360" dur="20s" repeatCount="indefinite"/>
      <path d="M 0.7179 -0.6962 L 0.7758 -0.631 L 0.8278 -0.561 L 0.8736 -0.4867 L 0.9127 -0.4087 L 0.9448 -0.3276 L 0.9698 -0.244 L 0.9874 -0.1585 L 0.9974 -0.0719 L 0.9999 0.0153 L 0.9947 0.1024" stroke-opacity="0.55" stroke-linecap="round" vector-effect="non-scaling-stroke"/>
      <path d="M 0.9947 0.1024 l .0001 0" stroke-width="3" stroke-linecap="round" stroke-opacity="0.9" vector-effect="non-scaling-stroke"/>
    </g>
  </g>
  <!-- venus -->
  <g transform="matrix(-37.04 -8.02 -24.52 16.48 0.25 0.05)">
    <circle r="1" stroke-opacity="0.45" vector-effect="non-scaling-stroke"/>
    <g>
      <animateTransform attributeName="transform" type="rotate" from="0" to="360" dur="51.1s" repeatCount="indefinite"/>
      <path d="M -0.2291 0.9734 L -0.3131 0.9497 L -0.3947 0.9188 L -0.4733 0.8809 L -0.5482 0.8363 L -0.619 0.7854 L -0.6851 0.7284 L -0.746 0.6659 L -0.8012 0.5984 L -0.8503 0.5263" stroke-opacity="0.5" stroke-linecap="round" vector-effect="non-scaling-stroke"/>
      <path d="M -0.8503 0.5263 l .0001 0" stroke-width="4.5" stroke-linecap="round" stroke-opacity="0.9" vector-effect="non-scaling-stroke"/>
    </g>
  </g>
  <!-- earth -->
  <g transform="matrix(-28.88 -22.1 -54.32 11.75 0.48 0.37)">
    <circle r="1" stroke-opacity="0.45" vector-effect="non-scaling-stroke"/>
    <g>
      <animateTransform attributeName="transform" type="rotate" from="0" to="360" dur="83s" repeatCount="indefinite"/>
      <path d="M -0.9961 0.0879 L -1 0.0007 L -0.9963 -0.0864 L -0.9849 -0.1729 L -0.9661 -0.2581 L -0.9399 -0.3413 L -0.9066 -0.422 L -0.8664 -0.4994 L -0.8196 -0.573 L -0.7665 -0.6422" stroke-opacity="0.5" stroke-linecap="round" vector-effect="non-scaling-stroke"/>
      <path d="M -0.7665 -0.6422 l .0001 0" stroke-width="4.5" stroke-linecap="round" stroke-opacity="0.9" vector-effect="non-scaling-stroke"/>
    </g>
  </g>
  <!-- mars -->
  <g transform="matrix(92.56 3.25 14.46 -36.71 -8.65 -0.3)">
    <circle r="1" stroke-opacity="0.4" vector-effect="non-scaling-stroke"/>
    <g>
      <animateTransform attributeName="transform" type="rotate" from="0" to="360" dur="156.2s" repeatCount="indefinite"/>
      <path d="M 0.821 0.5709 L 0.7682 0.6403 L 0.7094 0.7048 L 0.6453 0.7639 L 0.5763 0.8173 L 0.5028 0.8644 L 0.4256 0.9049 L 0.3451 0.9386 L 0.262 0.9651 L 0.1769 0.9842" stroke-opacity="0.45" stroke-linecap="round" vector-effect="non-scaling-stroke"/>
      <path d="M 0.1769 0.9842 l .0001 0" stroke-width="3.5" stroke-linecap="round" stroke-opacity="0.85" vector-effect="non-scaling-stroke"/>
    </g>
  </g>
  <!-- ceres -->
  <g transform="matrix(-163.97 13.44 -33 75.78 13.07 -1.07)">
    <circle r="1" stroke-opacity="0.26" vector-effect="non-scaling-stroke"/>
    <g>
      <animateTransform attributeName="transform" type="rotate" from="0" to="360" dur="382s" repeatCount="indefinite"/>
      <path d="M -0.1819 -0.9833 L -0.0955 -0.9954 L -0.0084 -1 L 0.0788 -0.9969 L 0.1654 -0.9862 L 0.2507 -0.9681" stroke-opacity="0.31" stroke-linecap="round" vector-effect="non-scaling-stroke"/>
      <path d="M 0.2507 -0.9681 l .0001 0" stroke-width="2.5" stroke-linecap="round" stroke-opacity="0.7" vector-effect="non-scaling-stroke"/>
    </g>
  </g>
  <!-- pallas -->
  <g transform="matrix(-125.15 -103.53 -111.74 99.77 28.87 23.89)">
    <circle r="1" stroke-opacity="0.22" vector-effect="non-scaling-stroke"/>
    <g>
      <animateTransform attributeName="transform" type="rotate" from="0" to="360" dur="382.7s" repeatCount="indefinite"/>
      <path d="M -0.6312 -0.7756 L -0.5612 -0.8277 L -0.487 -0.8734 L -0.409 -0.9125 L -0.3279 -0.9447 L -0.2443 -0.9697" stroke-opacity="0.27" stroke-linecap="round" vector-effect="non-scaling-stroke"/>
      <path d="M -0.2443 -0.9697 l .0001 0" stroke-width="2" stroke-linecap="round" stroke-opacity="0.6" vector-effect="non-scaling-stroke"/>
    </g>
  </g>
  <!-- juno -->
  <g transform="matrix(49.18 -93.49 -151.55 -30.86 -12.57 23.9)">
    <circle r="1" stroke-opacity="0.2" vector-effect="non-scaling-stroke"/>
    <g>
      <animateTransform attributeName="transform" type="rotate" from="0" to="360" dur="362.5s" repeatCount="indefinite"/>
      <path d="M -0.5236 -0.852 L -0.4474 -0.8944 L -0.3677 -0.9299 L -0.2853 -0.9585 L -0.2006 -0.9797 L -0.1145 -0.9934" stroke-opacity="0.25" stroke-linecap="round" vector-effect="non-scaling-stroke"/>
      <path d="M -0.1145 -0.9934 l .0001 0" stroke-width="2" stroke-linecap="round" stroke-opacity="0.55" vector-effect="non-scaling-stroke"/>
    </g>
  </g>
  <!-- vesta -->
  <g transform="matrix(0.86 66.87 143.81 -14.4 -0.08 -6.03)">
    <circle r="1" stroke-opacity="0.24" vector-effect="non-scaling-stroke"/>
    <g>
      <animateTransform attributeName="transform" type="rotate" from="0" to="360" dur="301.3s" repeatCount="indefinite"/>
      <path d="M 0.1813 0.9834 L 0.0949 0.9955 L 0.0078 1 L -0.0794 0.9968 L -0.1659 0.9861 L -0.2513 0.9679" stroke-opacity="0.29" stroke-linecap="round" vector-effect="non-scaling-stroke"/>
      <path d="M -0.2513 0.9679 l .0001 0" stroke-width="2.2" stroke-linecap="round" stroke-opacity="0.65" vector-effect="non-scaling-stroke"/>
    </g>
  </g>
  <!-- hygiea -->
  <g transform="matrix(-64.16 65.58 181.53 34.06 6.82 -6.97)">
    <circle r="1" stroke-opacity="0.2" vector-effect="non-scaling-stroke"/>
    <g>
      <animateTransform attributeName="transform" type="rotate" from="0" to="360" dur="464.5s" repeatCount="indefinite"/>
      <path d="M -0.6033 -0.7975 L -0.5315 -0.847 L -0.4557 -0.8901 L -0.3764 -0.9265 L -0.2942 -0.9557 L -0.2098 -0.9777" stroke-opacity="0.25" stroke-linecap="round" vector-effect="non-scaling-stroke"/>
      <path d="M -0.2098 -0.9777 l .0001 0" stroke-width="2" stroke-linecap="round" stroke-opacity="0.55" vector-effect="non-scaling-stroke"/>
    </g>
  </g>
  <!-- sun: the one accent node -->
  <circle r="3.5" fill="#e25d52" stroke="none" opacity="0.9"/>
</g>
  </g>
  <g font-family="ui-monospace, 'JetBrains Mono', 'Fira Code', monospace" text-anchor="middle">
    <text x="244" y="115" font-size="24" font-weight="300" letter-spacing="8" fill="#e6e6e9">SGIATH</text>
    <text x="240" y="145" font-size="9" letter-spacing="3" fill="#606069">H+ CYPHERPUNK</text>
  </g>
</svg>
